<svg width="300" height="300" viewBox="0 0 300 300" fill="none" xmlns="http://www.w3.org/2000/svg">
<g clip-path="url(#clip0)">
<path d="M48.92 228.92C46.1467 228.92 44.04 229.693 42.6 231.24C41.16 232.787 40.44 235.027 40.44 237.96V245.64H54.44V247.16H40.44V287H38.84V247.16H30.84V245.64H38.84V237.56C38.84 234.467 39.72 232.013 41.48 230.2C43.24 228.333 45.6933 227.4 48.84 227.4C50.3867 227.4 51.88 227.667 53.32 228.2C54.8133 228.68 56.0133 229.4 56.92 230.36L55.8 231.48C53.9867 229.773 51.6933 228.92 48.92 228.92ZM69.48 245.64H71.08V287H69.48V245.64ZM70.28 234.2C69.6933 234.2 69.1867 233.987 68.76 233.56C68.3867 233.133 68.2 232.653 68.2 232.12C68.2 231.533 68.3867 231.053 68.76 230.68C69.1867 230.253 69.6933 230.04 70.28 230.04C70.8133 230.04 71.2933 230.253 71.72 230.68C72.1467 231.053 72.36 231.533 72.36 232.12C72.36 232.653 72.1467 233.133 71.72 233.56C71.2933 233.987 70.8133 234.2 70.28 234.2ZM108.41 245.4C113.583 245.4 117.637 246.893 120.57 249.88C123.503 252.813 124.97 257.053 124.97 262.6V287H123.37V262.6C123.37 257.533 122.063 253.667 119.45 251C116.89 248.28 113.237 246.92 108.49 246.92C103.103 246.92 98.8367 248.547 95.69 251.8C92.5967 255 91.05 259.24 91.05 264.52V287H89.45V245.64H91.05V256.68C92.33 253.16 94.4633 250.413 97.45 248.44C100.437 246.413 104.09 245.4 108.41 245.4Z" fill="#666666"/>
<path d="M178.088 271.24H145.608L138.488 287H134.088L159.848 231H163.928L189.688 287H185.288L178.088 271.24ZM176.568 267.8L161.848 235.48L147.208 267.8H176.568ZM219.934 231C226.974 231 232.494 232.68 236.494 236.04C240.494 239.347 242.494 243.96 242.494 249.88C242.494 255.747 240.494 260.36 236.494 263.72C232.494 267.027 226.974 268.68 219.934 268.68H203.934V287H199.854V231H219.934ZM219.934 265C225.907 265 230.467 263.693 233.614 261.08C236.76 258.467 238.334 254.733 238.334 249.88C238.334 245.027 236.76 241.293 233.614 238.68C230.467 236.013 225.907 234.68 219.934 234.68H203.934V265H219.934ZM256.26 231H260.34V287H256.26V231Z" fill="#F1B31C"/>
<g clip-path="url(#clip1)">
<path d="M199.537 149.325C231.959 109.098 233.4 56.4647 202.754 31.7641C172.108 7.06351 120.981 19.6496 88.5587 59.876C56.1361 100.102 54.6955 152.736 85.3412 177.437C115.987 202.137 167.114 189.551 199.537 149.325Z" fill="#FCEA2B"/>
<path d="M202.002 31.7634C189.835 22.286 174.497 17.8354 159.147 19.3282C170.988 20.0508 182.323 24.3914 191.618 31.7634C222.264 56.4637 220.823 109.097 188.401 149.324C168.616 173.87 141.872 188.1 117.061 189.871C144.551 191.93 176.201 177.342 198.784 149.324C231.207 109.097 232.648 56.4631 202.002 31.7634Z" fill="white"/>
<path d="M212.346 35.1531C210.754 33.8694 209.067 32.6359 207.327 31.4872C207.211 31.4313 207.092 31.3828 206.97 31.3422C206.415 31.0674 205.795 30.9531 205.179 31.0123C204.547 31.0776 203.953 31.3436 203.483 31.7711C203.378 31.838 203.276 31.9114 203.18 31.9909C203.119 32.0569 203.1 32.1423 203.045 32.2119C202.99 32.2815 202.912 32.3208 202.862 32.3965C202.807 32.5109 202.759 32.6287 202.719 32.749C202.44 33.3093 202.326 33.9371 202.39 34.5596C202.418 34.7602 202.465 34.9577 202.53 35.1493C202.646 35.5526 202.855 35.9231 203.139 36.2313C203.208 36.3403 203.283 36.4448 203.365 36.5442C230.04 61.15 227.258 109.806 197.034 147.308C165.772 186.088 116.575 198.477 87.3685 174.933C87.1804 174.807 86.9793 174.703 86.7685 174.621C86.7073 174.589 86.6515 174.557 86.589 174.528C86.2816 174.397 85.9553 174.317 85.6223 174.289C85.5353 174.281 85.4532 174.269 85.3646 174.267C84.6762 174.249 84.003 174.472 83.4615 174.897C83.3535 174.953 83.2489 175.015 83.1483 175.084C83.0861 175.14 83.062 175.218 83.0053 175.277C82.9543 175.332 82.8844 175.358 82.8367 175.417C82.7806 175.512 82.7297 175.61 82.6843 175.711C82.5269 175.935 82.4 176.18 82.307 176.438C82.2757 176.54 82.2498 176.645 82.2297 176.75C82.1534 177.063 82.1256 177.385 82.1475 177.706C82.153 177.77 82.1655 177.83 82.1746 177.894C82.22 178.245 82.3248 178.585 82.4845 178.9C82.51 178.95 82.5419 178.995 82.5702 179.044C82.6649 179.253 82.7827 179.451 82.9215 179.634C85.1914 182.141 87.6545 184.466 90.2881 186.588C102.601 196.327 117.902 201.512 133.599 201.264C161.278 201.264 191.246 186.829 212.635 160.294C246.287 118.544 246.154 62.4035 212.346 35.1531Z" fill="#F1B31C"/>
<path d="M100.547 137.098C100.779 136.351 102.508 129.964 102.741 129.218C121.807 129.557 122.747 128.922 125.58 119.525C130.932 101.775 132.492 98.5999 137.843 80.8496C139.72 74.6262 139.387 73.2652 130.465 71.5632L125.028 70.5611C125.231 69.9057 126.45 63.8763 126.653 63.2209C139.813 63.2278 152.959 62.3793 166.009 60.6808L148.29 121.903C145.524 131.46 145.865 132.224 164.172 135.763C163.96 136.519 162.242 142.911 162.031 143.667L100.547 137.098Z" fill="#F1B31C"/>
<path d="M205.543 34.1702C207.178 35.247 208.77 36.409 210.319 37.656C242.799 63.8349 242.711 117.834 210.122 158.266C177.534 198.698 124.785 210.253 92.3053 184.074C89.8035 182.058 87.4634 179.849 85.3066 177.468" stroke="black" stroke-width="2" stroke-miterlimit="10"/>
<path d="M199.537 149.325C231.959 109.098 233.4 56.4647 202.754 31.7641C172.108 7.06351 120.981 19.6496 88.5587 59.876C56.1361 100.102 54.6955 152.736 85.3412 177.437C115.987 202.137 167.114 189.551 199.537 149.325Z" stroke="black" stroke-width="2" stroke-miterlimit="10"/>
<path d="M199.536 149.325L210.122 158.267" stroke="black" stroke-width="2" stroke-miterlimit="10"/>
<path d="M188.395 161.394L197.728 171.423" stroke="black" stroke-width="2" stroke-miterlimit="10"/>
<path d="M176.607 171.202L184.269 181.907" stroke="black" stroke-width="2" stroke-miterlimit="10"/>
<path d="M163.671 179.831L169.705 190.607" stroke="black" stroke-width="2" stroke-miterlimit="10"/>
<path d="M208.115 137.273L219.357 145.053" stroke="black" stroke-width="2" stroke-miterlimit="10"/>
<path d="M100.547 137.098C100.779 136.351 102.508 129.964 102.741 129.218C121.807 129.557 122.747 128.922 125.58 119.525C130.932 101.775 132.492 98.5999 137.843 80.8496C139.72 74.6262 139.387 73.2652 130.465 71.5632L125.028 70.5611C125.231 69.9057 126.45 63.8763 126.653 63.2209C139.813 63.2278 152.959 62.3793 166.009 60.6808L148.29 121.903C145.524 131.46 145.865 132.224 164.172 135.763C163.96 136.519 162.242 142.911 162.031 143.667L100.547 137.098Z" stroke="black" stroke-width="2" stroke-linecap="round" stroke-linejoin="round"/>
</g>
</g>
<defs>
<clipPath id="clip0">
<rect width="300" height="300" fill="white"/>
</clipPath>
<clipPath id="clip1">
<rect width="232" height="232" fill="white" transform="translate(34 -7)"/>
</clipPath>
</defs>
</svg>
